:FULLY-SPECIFIED
:FORCE-ALL-JOINTS-BE-3DOF
:DEGREES
1223
root -0.651161 14.741 -16.6729 366.288 26.803 365.241
lfemur 5.79903 5.2122 -8.91465
ltibia 41.0245 0 0
lfoot -15.3962 29.4791 0
ltoes -31.5134 0 0
rfemur -56.7385 -18.3028 13.5165
rtibia 74.4428 0 0
rfoot -16.8623 -11.4343 0
rtoes 1.6936 0 0
lowerback 17.8753 1.93926 -6.89794
upperback -1.73797 0.93736 -0.580523
thorax -12.1578 0.878856 3.00327
lowerneck -0.325953 -11.0732 -11.3696
upperneck 1.12417 -14.9885 11.5667
head 2.22482 -7.4625 4.74537
lclavicle 1.45825e-15 -1.27651e-14 0
lhumerus -63.7865 -24.2437 105.181
lradius 98.1159 0 0
lwrist 53.0268 0 0
lhand -18.1057 35.634 0
lfingers 7.12502 0 0
lthumb 8.16663 65.3166 0
rclavicle 1.45825e-15 -1.27651e-14 0
rhumerus 64.5102 -3.84214 -28.8609
rradius 93.6498 0 0
rwrist 2.04342 0 0
rhand -34.754 -33.5906 0
rfingers 7.12502 0 0
rthumb -7.90586 -63.3378 0
1224
root -0.659605 14.7585 -16.5099 366.246 26.4738 365.066
lfemur 5.07813 5.19097 -9.0403
ltibia 42.0823 0 0
lfoot -15.2701 29.1799 0
ltoes -31.4405 0 0
rfemur -56.3352 -18.0792 13.7639
rtibia 74.2786 0 0
rfoot -16.9768 -11.5595 0
rtoes 1.43525 0 0
lowerback 17.7688 1.92048 -6.75134
upperback -1.7626 0.953393 -0.534487
thorax -12.1239 0.877829 2.96823
lowerneck -0.360079 -10.9568 -11.2967
upperneck 1.19668 -14.8316 11.4653
head 2.23017 -7.38399 4.71194
lclavicle 1.54998e-15 -1.27057e-14 0
lhumerus -62.9462 -24.7294 105.176
lradius 97.4948 0 0
lwrist 51.6566 0 0
lhand -18.4612 35.5515 0
lfingers 7.12502 0 0
lthumb 7.82346 65.235 0
rclavicle 1.54998e-15 -1.27057e-14 0
rhumerus 64.5119 -3.39892 -28.9103
rradius 93.8522 0 0
rwrist 1.40463 0 0
rhand -34.5249 -33.7539 0
rfingers 7.12502 0 0
rthumb -7.68466 -63.5011 0
1225
root -0.668049 14.776 -16.3469 366.205 26.0967 364.868
lfemur 4.258 5.16871 -9.18168
ltibia 43.2765 0 0
lfoot -15.1172 28.8354 0
ltoes -31.3711 0 0
rfemur -55.8816 -17.8217 14.0492
rtibia 74.1029 0 0
rfoot -17.1201 -11.7228 0
rtoes 1.1421 0 0
lowerback 17.6527 1.89717 -6.58095
upperback -1.79088 0.969161 -0.481309
thorax -12.0882 0.875402 2.92768
lowerneck -0.398399 -10.8234 -11.2116
upperneck 1.27419 -14.6516 11.3494
head 2.23438 -7.29397 4.67376
lclavicle 1.67208e-15 -1.26527e-14 0
lhumerus -61.9838 -25.2864 105.172
lradius 96.7812 0 0
lwrist 50.0857 0 0
lhand -18.8639 35.4508 0
lfingers 7.12502 0 0
lthumb 7.43467 65.1352 0
rclavicle 1.67208e-15 -1.26527e-14 0
rhumerus 64.5155 -2.89144 -28.9646
rradius 94.0869 0 0
rwrist 0.664986 0 0
rhand -34.258 -33.9357 0
rfingers 7.12502 0 0
rthumb -7.42688 -63.6833 0
1226
root -0.676492 14.7935 -16.184 366.167 25.6677 364.645
lfemur 3.33062 5.14548 -9.33992
ltibia 44.6173 0 0
lfoot -14.9347 28.4416 0
ltoes -31.3064 0 0
rfemur -55.3738 -17.5273 14.3757
rtibia 73.9155 0 0
rfoot -17.2957 -11.9289 0
rtoes 0.811401 0 0
lowerback 17.5267 1.86881 -6.38454
upperback -1.82311 0.984444 -0.420346
thorax -12.0506 0.871361 2.88111
lowerneck -0.441212 -10.6718 -11.1134
upperneck 1.35671 -14.4466 11.2178
head 2.23722 -7.19147 4.63044
lclavicle 1.82841e-15 -1.26078e-14 0
lhumerus -60.8887 -25.9211 105.169
lradius 95.9669 0 0
lwrist 48.2969 0 0
lhand -19.3176 35.3299 0
lfingers 7.12502 0 0
lthumb 6.9967 65.015 0
rclavicle 1.82841e-15 -1.26078e-14 0
rhumerus 64.5213 -2.31423 -29.0243
rradius 94.3569 0 0
rwrist -0.184712 0 0
rhand -33.9496 -34.1372 0
rfingers 7.12502 0 0
rthumb -7.12908 -63.8855 0
1227
root -0.684936 14.8111 -16.021 366.133 25.1826 364.395
lfemur 2.28796 5.12135 -9.51619
ltibia 46.1149 0 0
lfoot -14.7195 27.9944 0
ltoes -31.2477 0 0
rfemur -54.8083 -17.1931 14.7467
rtibia 73.7165 0 0
rfoot -17.5069 -12.1826 0
rtoes 0.440397 0 0
lowerback 17.3904 1.83488 -6.1599
upperback -1.85962 0.999025 -0.350957
thorax -12.0113 0.865492 2.82803
lowerneck -0.488818 -10.5005 -11.0009
upperneck 1.44424 -14.2144 11.0694
head 2.23845 -7.07548 4.58158
lclavicle 2.02283e-15 -1.25727e-14 0
lhumerus -59.6507 -26.6394 105.167
lradius 95.0439 0 0
lwrist 46.2729 0 0
lhand -19.826 35.1869 0
lfingers 7.12502 0 0
lthumb 6.50598 64.8726 0
rclavicle 2.02283e-15 -1.25727e-14 0
rhumerus 64.5296 -1.66183 -29.0895
rradius 94.6651 0 0
rwrist -1.15365 0 0
rhand -33.5962 -34.3596 0
rfingers 7.12502 0 0
rthumb -6.78781 -64.1089 0
1228
root -0.69338 14.8286 -15.858 366.102 24.6373 364.117
lfemur 1.12201 5.09638 -9.71162
ltibia 47.7797 0 0
lfoot -14.4689 27.4898 0
ltoes -31.1966 0 0
rfemur -54.1813 -16.8161 15.1657
rtibia 73.5056 0 0
rfoot -17.7571 -12.4887 0
rtoes 0.026333 0 0
lowerback 17.2435 1.79486 -5.90482
upperback -1.90071 1.01269 -0.2725
thorax -11.9702 0.857583 2.76793
lowerneck -0.541516 -10.3079 -10.8729
upperneck 1.53679 -13.9533 10.9028
head 2.23783 -6.94504 4.52678
lclavicle 2.25921e-15 -1.2549e-14 0
lhumerus -58.2594 -27.4474 105.167
lradius 94.0042 0 0
lwrist 43.9966 0 0
lhand -20.3926 35.0196 0
lfingers 7.12502 0 0
lthumb 5.95896 64.7059 0
rclavicle 2.25921e-15 -1.2549e-14 0
rhumerus 64.5406 -0.928796 -29.1604
rradius 95.0146 0 0
rwrist -2.251 0 0
rhand -33.1941 -34.6041 0
rfingers 7.12502 0 0
rthumb -6.39963 -64.3548 0
1229
root -0.701824 14.8461 -15.695 366.077 24.0279 363.809
lfemur -0.175267 5.07064 -9.92736
ltibia 49.622 0 0
lfoot -14.1799 26.924 0
ltoes -31.1542 0 0
rfemur -53.4892 -16.3932 15.636
rtibia 73.283 0 0
rfoot -18.0498 -12.8518 0
rtoes -0.433545 0 0
lowerback 17.0856 1.74823 -5.61708
upperback -1.9467 1.02521 -0.184333
thorax -11.9276 0.84742 2.70031
lowerneck -0.599604 -10.0928 -10.7283
upperneck 1.63438 -13.661 10.717
head 2.23511 -6.79914 4.46566
lclavicle 2.54141e-15 -1.25384e-14 0
lhumerus -56.7042 -28.3515 105.168
lradius 92.8396 0 0
lwrist 41.4507 0 0
lhand -21.0213 34.8261 0
lfingers 7.12502 0 0
lthumb 5.35207 64.5128 0
rclavicle 2.54141e-15 -1.25384e-14 0
rhumerus 64.5546 -0.109661 -29.2375
rradius 95.4084 0 0
rwrist -3.48596 0 0
rhand -32.74 -34.8719 0
rfingers 7.12502 0 0
rthumb -5.96108 -64.6245 0
